<?xml version="1.0" encoding="utf-8"?>
<!-- Generator: Adobe Illustrator 19.1.0, SVG Export Plug-In . SVG Version: 6.00 Build 0)  -->
<svg version="1.1" id="Warstwa_1" xmlns="http://www.w3.org/2000/svg" xmlns:xlink="http://www.w3.org/1999/xlink" x="0px" y="0px"
	 viewBox="0 0 716 166" style="enable-background:new 0 0 716 166;" xml:space="preserve">
<style type="text/css">
	.st0{clip-path:url(#SVGID_2_);fill:#901F63;}
	.st1{clip-path:url(#SVGID_2_);}
	.st2{clip-path:url(#SVGID_4_);fill:#323131;}
	.st3{clip-path:url(#SVGID_4_);}
	.st4{opacity:0.2;clip-path:url(#SVGID_4_);}
	.st5{clip-path:url(#SVGID_6_);}
	.st6{opacity:0.5;clip-path:url(#SVGID_4_);}
	.st7{clip-path:url(#SVGID_8_);}
</style>
<g>
	<defs>
		<rect id="SVGID_1_" x="-92" y="-116" width="900" height="400"/>
	</defs>
	<clipPath id="SVGID_2_">
		<use xlink:href="#SVGID_1_"  style="overflow:visible;"/>
	</clipPath>
	<polygon class="st0" points="588,4.5 588,132.5 612,132.5 612,163.5 643,132.5 682,132.5 658,108.5 612,108.5 612,28.5 692,28.5 
		692,108.5 682,108.5 682,132.5 716,132.5 716,4.5 	"/>
	<g class="st1">
		<defs>
			<rect id="SVGID_3_" x="-92" y="-116" width="900" height="400"/>
		</defs>
		<clipPath id="SVGID_4_">
			<use xlink:href="#SVGID_3_"  style="overflow:visible;"/>
		</clipPath>
		<path class="st2" d="M0,77.6l7.8-11.5c4.1,4.1,10.5,7.6,18.4,7.6c5,0,8.1-1.7,8.1-4.6c0-7.6-32.4-1.3-32.4-23.4
			c0-9.6,8.1-18.2,22.8-18.2c9.2,0,17.2,2.8,23.3,8l-8.1,11.1c-4.8-4-11.1-6-16.8-6c-4.3,0-6.2,1.5-6.2,4c0,7.1,32.4,1.7,32.4,23
			c0,11.5-8.5,19.2-23.9,19.2C13.8,86.8,5.8,83.1,0,77.6"/>
		<path class="st2" d="M57.5,85.7V28.4h28.7c12.9,0,20,8.7,20,19.1c0,10.3-7.1,19-20,19H72.3v19.3H57.5z M91.2,47.5
			c0-4-3.2-6.2-7.1-6.2H72.3v12.3H84C88,53.6,91.2,51.3,91.2,47.5"/>
		<rect x="114.1" y="28.4" class="st2" width="14.8" height="57.4"/>
		<path class="st2" d="M140.5,85.7V28.4h24.1c18.1,0,31,10.8,31,28.6c0,17.8-13,28.7-31,28.7H140.5z M180.5,57
			c0-8.9-5.3-15.7-15.8-15.7h-9.4v31.6h9.3C174.7,72.8,180.5,65.5,180.5,57"/>
		<polygon class="st2" points="204.3,85.7 204.3,28.4 246.4,28.4 246.4,41.3 219.1,41.3 219.1,50.2 245.8,50.2 245.8,63.1 
			219.1,63.1 219.1,72.8 246.4,72.8 246.4,85.7 		"/>
		<path class="st2" d="M288.3,85.7l-9.6-19.3h-7.6v19.3h-14.8V28.4H285c12.7,0,20,8.4,20,19.1c0,10-6,15.3-11.4,17.2l11.7,21.1
			H288.3z M289.9,47.4c0-4-3.2-6.1-7.1-6.1h-11.7v12.3h11.7C286.7,53.6,289.9,51.4,289.9,47.4"/>
		<path class="st2" d="M318.9,54.8l-5.5-4.4c2.8-1.4,6.4-5.1,7.3-8.3c-0.3,0.2-1.2,0.3-2,0.3c-3.7,0-6.7-2.8-6.7-7.1
			c0-4.4,3.6-7.9,7.9-7.9c4.6,0,8.8,3.6,8.8,10C328.7,44.4,324.9,50.6,318.9,54.8"/>
		<path class="st2" d="M333.9,77.6l7.8-11.5c4.1,4.1,10.5,7.6,18.4,7.6c5,0,8.1-1.7,8.1-4.6c0-7.6-32.4-1.3-32.4-23.4
			c0-9.6,8.1-18.2,22.8-18.2c9.2,0,17.2,2.8,23.3,8l-8.1,11.1c-4.8-4-11.1-6-16.8-6c-4.3,0-6.2,1.5-6.2,4c0,7.1,32.4,1.7,32.4,23
			c0,11.5-8.5,19.2-23.9,19.2C347.8,86.8,339.7,83.1,333.9,77.6"/>
		<polygon class="st2" points="436.9,85.7 424.2,39.5 411.6,85.7 403.8,85.7 387.5,28.4 395.4,28.4 408.1,76.2 421.3,28.4 
			427.2,28.4 440.4,76.2 453,28.4 461,28.4 444.6,85.7 		"/>
		<polygon class="st2" points="470.2,85.7 470.2,28.4 507.8,28.4 507.8,34.7 477.4,34.7 477.4,53.2 507.2,53.2 507.2,59.6 
			477.4,59.6 477.4,79.4 507.8,79.4 507.8,85.7 		"/>
		<path class="st2" d="M520.5,85.7V28.4H546c10,0,16.1,6,16.1,14.6c0,7.2-4.8,12-10.1,13.2c6.1,0.9,11.2,7.2,11.2,14.1
			c0,9.2-6.1,15.5-16.6,15.5H520.5z M554.7,44c0-5.2-3.4-9.3-9.9-9.3h-17.2v18.5h17.2C551.3,53.2,554.7,49.3,554.7,44 M555.8,69.5
			c0-5.2-3.6-9.9-10.6-9.9h-17.6v19.8h17.6C551.9,79.4,555.8,75.6,555.8,69.5"/>
		<path class="st3" d="M163.8,132.1v-20h8.9c3.5,0,5.6,2.1,5.6,5.1c0,2.5-1.7,4.2-3.5,4.6c2.1,0.3,3.9,2.5,3.9,4.9
			c0,3.2-2.1,5.4-5.8,5.4H163.8z M175.8,117.6c0-1.8-1.2-3.2-3.5-3.2h-6v6.4h6C174.6,120.8,175.8,119.4,175.8,117.6 M176.2,126.4
			c0-1.8-1.3-3.4-3.7-3.4h-6.2v6.9h6.2C174.8,129.9,176.2,128.6,176.2,126.4"/>
		<polygon class="st3" points="183.3,132.1 183.3,112.1 185.8,112.1 185.8,129.9 195.1,129.9 195.1,132.1 		"/>
		<path class="st3" d="M197.6,122.1c0-5.9,4-10.3,9.9-10.3s10,4.4,10,10.3c0,5.9-4,10.4-10,10.4S197.6,128,197.6,122.1 M214.9,122.1
			c0-4.7-2.9-8.1-7.4-8.1c-4.5,0-7.3,3.4-7.3,8.1c0,4.7,2.8,8.1,7.3,8.1C212,130.2,214.9,126.8,214.9,122.1"/>
		<path class="st3" d="M221.5,122.1c0-6.2,4.6-10.3,10.3-10.3c3.6,0,6,1.6,7.8,3.7l-2,1.3c-1.3-1.6-3.4-2.8-5.8-2.8
			c-4.4,0-7.7,3.3-7.7,8.1c0,4.7,3.3,8.1,7.7,8.1c2.4,0,4.4-1.1,5.4-2.2v-4h-6.9v-2.2h9.4v7.2c-1.9,2.1-4.6,3.5-7.9,3.5
			C226.1,132.5,221.5,128.3,221.5,122.1"/>
		<path class="st3" d="M253.4,132.1v-20h8.9c3.5,0,5.6,2.1,5.6,5.1c0,2.5-1.7,4.2-3.5,4.6c2.1,0.3,3.9,2.5,3.9,4.9
			c0,3.2-2.1,5.4-5.8,5.4H253.4z M265.3,117.6c0-1.8-1.2-3.2-3.5-3.2h-6v6.4h6C264.1,120.8,265.3,119.4,265.3,117.6 M265.7,126.4
			c0-1.8-1.3-3.4-3.7-3.4h-6.2v6.9h6.2C264.3,129.9,265.7,128.6,265.7,126.4"/>
		<polygon class="st3" points="272.9,132.1 272.9,112.1 275.4,112.1 275.4,129.9 284.7,129.9 284.7,132.1 		"/>
		<rect x="289" y="112.1" class="st3" width="2.5" height="20"/>
		<path class="st3" d="M295.9,129.3l1.5-1.9c1.3,1.5,3.4,2.9,6.3,2.9c3.6,0,4.7-1.9,4.7-3.5c0-5.2-11.8-2.3-11.8-9.4
			c0-3.3,2.9-5.6,6.9-5.6c3,0,5.4,1.1,7.1,2.8l-1.5,1.8c-1.5-1.7-3.6-2.4-5.8-2.4c-2.4,0-4.1,1.3-4.1,3.2c0,4.5,11.9,1.9,11.9,9.4
			c0,2.9-2,5.9-7.4,5.9C300.1,132.5,297.5,131.1,295.9,129.3"/>
		<polygon class="st3" points="327.7,132.1 320.1,123.1 318.1,125.4 318.1,132.1 315.6,132.1 315.6,112.1 318.1,112.1 318.1,122.4 
			327,112.1 330.1,112.1 321.7,121.6 330.8,132.1 		"/>
		<path class="st3" d="M332.2,122.1c0-5.9,4-10.3,9.9-10.3s10,4.4,10,10.3c0,5.9-4,10.4-10,10.4S332.2,128,332.2,122.1 M349.5,122.1
			c0-4.7-2.9-8.1-7.4-8.1c-4.5,0-7.3,3.4-7.3,8.1c0,4.7,2.8,8.1,7.3,8.1C346.6,130.2,349.5,126.8,349.5,122.1"/>
		<polygon class="st3" points="370.6,132.1 370.6,114.3 364.3,114.3 364.3,112.1 379.4,112.1 379.4,114.3 373.1,114.3 373.1,132.1 
					"/>
		<polygon class="st3" points="383.7,132.1 383.7,112.1 396.8,112.1 396.8,114.3 386.2,114.3 386.2,120.8 396.6,120.8 396.6,123 
			386.2,123 386.2,129.9 396.8,129.9 396.8,132.1 		"/>
		<path class="st3" d="M400.9,122.1c0-6.1,4.5-10.3,10.3-10.3c3.5,0,6,1.7,7.6,4l-2.1,1.2c-1.1-1.7-3.2-2.9-5.5-2.9
			c-4.4,0-7.7,3.3-7.7,8.1c0,4.7,3.3,8.1,7.7,8.1c2.3,0,4.4-1.2,5.5-2.9l2.1,1.1c-1.7,2.3-4.1,4-7.6,4
			C405.4,132.5,400.9,128.3,400.9,122.1"/>
		<polygon class="st3" points="437.2,132.1 437.2,122.9 425.5,122.9 425.5,132.1 423,132.1 423,112.1 425.5,112.1 425.5,120.7 
			437.2,120.7 437.2,112.1 439.6,112.1 439.6,132.1 		"/>
		<polygon class="st3" points="459.4,132.1 447.8,116.1 447.8,132.1 445.3,132.1 445.3,112.1 447.8,112.1 459.3,127.7 459.3,112.1 
			461.8,112.1 461.8,132.1 		"/>
		<path class="st3" d="M466.7,122.1c0-5.9,4-10.3,9.9-10.3c5.9,0,10,4.4,10,10.3c0,5.9-4,10.4-10,10.4
			C470.7,132.5,466.7,128,466.7,122.1 M484,122.1c0-4.7-2.9-8.1-7.4-8.1c-4.5,0-7.3,3.4-7.3,8.1c0,4.7,2.8,8.1,7.3,8.1
			C481.1,130.2,484,126.8,484,122.1"/>
		<polygon class="st3" points="491.1,132.1 491.1,112.1 493.6,112.1 493.6,129.9 502.8,129.9 502.8,132.1 		"/>
		<path class="st3" d="M505.3,122.1c0-5.9,4-10.3,9.9-10.3c5.9,0,10,4.4,10,10.3c0,5.9-4,10.4-10,10.4
			C509.3,132.5,505.3,128,505.3,122.1 M522.6,122.1c0-4.7-2.9-8.1-7.4-8.1c-4.5,0-7.3,3.4-7.3,8.1c0,4.7,2.8,8.1,7.3,8.1
			C519.7,130.2,522.6,126.8,522.6,122.1"/>
		<path class="st3" d="M529.2,122.1c0-6.2,4.6-10.3,10.3-10.3c3.6,0,6,1.6,7.8,3.7l-2,1.3c-1.3-1.6-3.4-2.8-5.8-2.8
			c-4.4,0-7.7,3.3-7.7,8.1c0,4.7,3.3,8.1,7.7,8.1c2.4,0,4.4-1.1,5.4-2.2v-4H538v-2.2h9.4v7.2c-1.9,2.1-4.6,3.5-7.9,3.5
			C533.8,132.5,529.2,128.3,529.2,122.1"/>
		<rect x="552.4" y="112.1" class="st3" width="2.5" height="20"/>
		<rect x="560.5" y="112.1" class="st3" width="2.5" height="20"/>
		<g class="st4">
			<g>
				<defs>
					<path id="SVGID_5_" d="M612,132.5h31H612z"/>
				</defs>
				<clipPath id="SVGID_6_">
					<use xlink:href="#SVGID_5_"  style="overflow:visible;"/>
				</clipPath>
				<line class="st5" x1="612" y1="132.5" x2="643" y2="132.5"/>
			</g>
		</g>
		<g class="st6">
			<g>
				<defs>
					<rect id="SVGID_7_" x="612" y="132.5" width="31" height="14.2"/>
				</defs>
				<clipPath id="SVGID_8_">
					<use xlink:href="#SVGID_7_"  style="overflow:visible;"/>
				</clipPath>
				<polygon class="st7" points="643,132.5 612,146.8 612,132.5 				"/>
			</g>
		</g>
	</g>
</g>
</svg>
